<svg width="33" height="33" viewBox="0 0 33 33" fill="none" xmlns="http://www.w3.org/2000/svg">
<g clip-path="url(#clip0_54_427)">
<path d="M8.66201 21.7173C8.36548 22.111 8.37486 22.735 8.83371 23.0807L11.8928 25.3851C12.3516 25.7308 12.954 25.5676 13.2506 25.174L13.8436 24.3867L9.25506 20.9301L8.66201 21.7173ZM22.2243 8.48784C19.2417 6.24102 15.0325 6.89556 12.7196 9.96585C11.2963 11.8553 10.9686 14.1998 11.6335 16.1815L10.2695 17.9922C9.97293 18.3858 9.98231 19.0099 10.4412 19.3556L15.0297 22.8122C15.4886 23.1579 16.091 22.9947 16.3875 22.6011L17.7516 20.7904C19.8991 20.804 22.0622 19.8421 23.4263 18.0314C25.7392 14.9611 25.2069 10.7347 22.2243 8.48784Z" fill="#CABB6B"/>
</g>
<defs>
<clipPath id="clip0_54_427">
<rect width="22.9794" height="23.6553" fill="white" transform="translate(14.2333) rotate(36.9914)"/>
</clipPath>
</defs>
</svg>
