<svg width="18" height="18" viewBox="0 0 18 18" fill="none" xmlns="http://www.w3.org/2000/svg">
<g clip-path="url(#clip0_10_118)">
<path d="M12 8.1419C13.245 8.1419 14.2425 7.15007 14.2425 5.92138C14.2425 4.6927 13.245 3.70087 12 3.70087C10.755 3.70087 9.75 4.6927 9.75 5.92138C9.75 7.15007 10.755 8.1419 12 8.1419ZM6 8.1419C7.245 8.1419 8.2425 7.15007 8.2425 5.92138C8.2425 4.6927 7.245 3.70087 6 3.70087C4.755 3.70087 3.75 4.6927 3.75 5.92138C3.75 7.15007 4.755 8.1419 6 8.1419ZM6 9.62224C4.2525 9.62224 0.75 10.4882 0.75 12.2128V14.0633H11.25V12.2128C11.25 10.4882 7.7475 9.62224 6 9.62224ZM12 9.62224C11.7825 9.62224 11.535 9.63705 11.2725 9.65925C12.1425 10.281 12.75 11.1174 12.75 12.2128V14.0633H17.25V12.2128C17.25 10.4882 13.7475 9.62224 12 9.62224Z" fill="#CABB6B"/>
</g>
<defs>
<clipPath id="clip0_10_118">
<rect width="18" height="17.7641" fill="white"/>
</clipPath>
</defs>
</svg>
