<svg width="18" height="18" viewBox="0 0 18 18" fill="none" xmlns="http://www.w3.org/2000/svg">
<g clip-path="url(#clip0_10_110)">
<path d="M8.9925 1.48035C4.8525 1.48035 1.5 4.79632 1.5 8.88207C1.5 12.9678 4.8525 16.2838 8.9925 16.2838C13.14 16.2838 16.5 12.9678 16.5 8.88207C16.5 4.79632 13.14 1.48035 8.9925 1.48035ZM9 14.8034C5.685 14.8034 3 12.1536 3 8.88207C3 5.61051 5.685 2.96069 9 2.96069C12.315 2.96069 15 5.61051 15 8.88207C15 12.1536 12.315 14.8034 9 14.8034Z" fill="#CABB6B"/>
<path d="M9.37502 5.18121H8.25002V9.62225L12.1875 11.9538L12.75 11.0434L9.37502 9.06712V5.18121Z" fill="#CABB6B"/>
</g>
<defs>
<clipPath id="clip0_10_110">
<rect width="18" height="17.7641" fill="white"/>
</clipPath>
</defs>
</svg>
